<svg viewBox="0 0 100 100" xmlns="http://www.w3.org/2000/svg">
  <defs>
    <linearGradient id="g" x1="0" y1="0" x2="100" y2="100" gradientUnits="userSpaceOnUse">
      <stop offset="0%" stop-color="#6366F1"></stop>
      <stop offset="100%" stop-color="#8B5CF6"></stop>
    </linearGradient>
  </defs>

  
  <rect x="2" y="2" width="96" height="96" rx="21" fill="url(#g)"></rect>

  
  <g transform="translate(12.5, 17.5) scale(1.7045)">
    <path d="M22 36 C22 36 6 26 6 16 C6 11 10 8 14 8 C17 8 19.5 9.5 22 12 C24.5 9.5 27 8 30 8 C34 8 38 11 38 16 C38 26 22 36 22 36Z" fill="white" fill-opacity="0.95"></path>
  </g>

  
  
  <rect x="46.5" y="41.5" width="7" height="15" rx="3" fill="#6366F1"></rect>
  <rect x="42.5" y="45.5" width="15" height="7" rx="3" fill="#6366F1"></rect>
</svg>